<svg width="110" height="152" viewBox="0 0 110 152" fill="none" xmlns="http://www.w3.org/2000/svg">
<path d="M0.107239 102.237L109.441 103.15V118.3C109.441 126.365 104.111 134.451 93.4299 140.602C72.0897 152.927 37.4581 152.927 16.1178 140.602C5.43686 134.451 0.107239 126.365 0.107239 118.3V102.237Z" fill="url(#paint0_linear_1_1433)"/>
<path d="M5.41512 100.324H3.58783V151.644H5.41512V100.324Z" fill="url(#paint1_linear_1_1433)"/>
<path d="M11.6801 100.324H9.85284V151.644H11.6801V100.324Z" fill="url(#paint2_linear_1_1433)"/>
<path d="M17.9669 100.324H16.1396V151.644H17.9669V100.324Z" fill="url(#paint3_linear_1_1433)"/>
<path d="M24.2537 100.324H22.4264V151.644H24.2537V100.324Z" fill="url(#paint4_linear_1_1433)"/>
<path d="M30.5405 100.324H28.7131V151.644H30.5405V100.324Z" fill="url(#paint5_linear_1_1433)"/>
<path d="M36.8272 100.324H34.9999V151.644H36.8272V100.324Z" fill="url(#paint6_linear_1_1433)"/>
<path d="M43.114 100.324H41.2867V151.644H43.114V100.324Z" fill="url(#paint7_linear_1_1433)"/>
<path d="M49.4008 100.324H47.5735V151.644H49.4008V100.324Z" fill="url(#paint8_linear_1_1433)"/>
<path d="M55.6875 100.324H53.8602V151.644H55.6875V100.324Z" fill="url(#paint9_linear_1_1433)"/>
<path d="M61.9743 100.324H60.147V151.644H61.9743V100.324Z" fill="url(#paint10_linear_1_1433)"/>
<path d="M68.2611 100.324H66.4338V151.644H68.2611V100.324Z" fill="url(#paint11_linear_1_1433)"/>
<path d="M74.5479 100.324H72.7206V151.644H74.5479V100.324Z" fill="url(#paint12_linear_1_1433)"/>
<path d="M80.8129 100.324H78.9856V151.644H80.8129V100.324Z" fill="url(#paint13_linear_1_1433)"/>
<path d="M87.0996 100.324H85.2723V151.644H87.0996V100.324Z" fill="url(#paint14_linear_1_1433)"/>
<path d="M93.3864 100.324H91.5591V151.644H93.3864V100.324Z" fill="url(#paint15_linear_1_1433)"/>
<path d="M99.6732 100.324H97.8459V151.644H99.6732V100.324Z" fill="url(#paint16_linear_1_1433)"/>
<path d="M105.96 100.324H104.133V151.644H105.96V100.324Z" fill="url(#paint17_linear_1_1433)"/>
<path d="M54.7739 135.233C84.9654 135.233 109.441 121.112 109.441 103.693C109.441 86.2745 84.9654 72.1537 54.7739 72.1537C24.5823 72.1537 0.107239 86.2745 0.107239 103.693C0.107239 121.112 24.5823 135.233 54.7739 135.233Z" fill="url(#paint18_linear_1_1433)"/>
<path d="M54.7739 129.777C81.1449 129.777 102.523 117.447 102.523 102.237C102.523 87.0271 81.1449 74.6969 54.7739 74.6969C28.4028 74.6969 7.02484 87.0271 7.02484 102.237C7.02484 117.447 28.4028 129.777 54.7739 129.777Z" stroke="#61C196" stroke-width="0.8386" stroke-miterlimit="10"/>
<path d="M49.0309 85.1304L42.1133 81.1526L35.783 84.8043L42.1133 88.4561L35.783 92.1078L29.4528 88.4561L23.1225 92.1078L29.4528 95.7596L23.1225 99.4113L54.7521 117.648L61.0824 113.997L67.4127 117.648L73.743 113.997L67.4127 110.345L73.743 106.693L80.0733 110.345L86.4036 106.693L79.4859 102.715C81.4437 100.389 81.2479 97.6507 78.942 95.4335C76.6579 93.2164 72.5683 91.8035 68.1088 91.6948C67.913 89.1082 65.4766 86.7606 61.6263 85.4347C57.7976 84.1088 53.0553 84.0001 49.0309 85.1304ZM35.783 99.3896L51.5979 90.2602C53.3382 89.2603 56.1878 89.2603 57.9281 90.2602C59.6684 91.2601 59.6684 92.9121 57.9281 93.9119L42.1133 103.041L35.783 99.3896ZM70.5887 101.215L54.7739 110.345L48.4436 106.693L64.2584 97.5637C65.9987 96.5639 68.8484 96.5639 70.5887 97.5637C72.329 98.5636 72.329 100.216 70.5887 101.215Z" fill="white"/>
<path d="M0.107239 84.3044L109.441 85.2174V100.368C109.441 108.432 104.111 116.518 93.4299 122.669C72.0897 134.994 37.4581 134.994 16.1178 122.669C5.43686 116.518 0.107239 108.432 0.107239 100.368V84.3044Z" fill="url(#paint19_linear_1_1433)"/>
<path d="M5.41512 82.3916H3.58783V133.712H5.41512V82.3916Z" fill="url(#paint20_linear_1_1433)"/>
<path d="M11.6801 82.3916H9.85284V133.712H11.6801V82.3916Z" fill="url(#paint21_linear_1_1433)"/>
<path d="M17.9669 82.3916H16.1396V133.712H17.9669V82.3916Z" fill="url(#paint22_linear_1_1433)"/>
<path d="M24.2537 82.3916H22.4264V133.712H24.2537V82.3916Z" fill="url(#paint23_linear_1_1433)"/>
<path d="M30.5405 82.3916H28.7131V133.712H30.5405V82.3916Z" fill="url(#paint24_linear_1_1433)"/>
<path d="M36.8272 82.3916H34.9999V133.712H36.8272V82.3916Z" fill="url(#paint25_linear_1_1433)"/>
<path d="M43.114 82.3916H41.2867V133.712H43.114V82.3916Z" fill="url(#paint26_linear_1_1433)"/>
<path d="M49.4008 82.3916H47.5735V133.712H49.4008V82.3916Z" fill="url(#paint27_linear_1_1433)"/>
<path d="M55.6875 82.3916H53.8602V133.712H55.6875V82.3916Z" fill="url(#paint28_linear_1_1433)"/>
<path d="M61.9743 82.3916H60.147V133.712H61.9743V82.3916Z" fill="url(#paint29_linear_1_1433)"/>
<path d="M68.2611 82.3916H66.4338V133.712H68.2611V82.3916Z" fill="url(#paint30_linear_1_1433)"/>
<path d="M74.5479 82.3916H72.7206V133.712H74.5479V82.3916Z" fill="url(#paint31_linear_1_1433)"/>
<path d="M80.8129 82.3916H78.9856V133.712H80.8129V82.3916Z" fill="url(#paint32_linear_1_1433)"/>
<path d="M87.0996 82.3916H85.2723V133.712H87.0996V82.3916Z" fill="url(#paint33_linear_1_1433)"/>
<path d="M93.3864 82.3916H91.5591V133.712H93.3864V82.3916Z" fill="url(#paint34_linear_1_1433)"/>
<path d="M99.6732 82.3916H97.8459V133.712H99.6732V82.3916Z" fill="url(#paint35_linear_1_1433)"/>
<path d="M105.96 82.3916H104.133V133.712H105.96V82.3916Z" fill="url(#paint36_linear_1_1433)"/>
<path d="M54.7739 117.322C84.9654 117.322 109.441 103.201 109.441 85.7825C109.441 68.3636 84.9654 54.2428 54.7739 54.2428C24.5823 54.2428 0.107239 68.3636 0.107239 85.7825C0.107239 103.201 24.5823 117.322 54.7739 117.322Z" fill="url(#paint37_linear_1_1433)"/>
<path d="M88.5353 103.802C69.8925 114.562 39.6551 114.562 21.0124 103.802C2.36958 93.0426 2.36958 75.6098 21.0124 64.8502C39.6551 54.0906 69.8925 54.0906 88.5353 64.8502C107.178 75.5881 107.178 93.0426 88.5353 103.802Z" stroke="#61C196" stroke-width="0.8386" stroke-miterlimit="10"/>
<path d="M49.0309 67.1978L42.1133 63.22L35.783 66.8717L42.1133 70.5235L35.783 74.1752L29.4528 70.5235L23.1225 74.1752L29.4528 77.8269L23.1225 81.4787L54.7521 99.7157L61.0824 96.064L67.4127 99.7157L73.743 96.064L67.4127 92.4122L73.743 88.7604L80.0733 92.4122L86.4036 88.7604L79.4859 84.7827C81.4437 82.4569 81.2479 79.718 78.942 77.5009C76.6579 75.2838 72.5683 73.8709 68.1088 73.7622C67.913 71.1756 65.4766 68.828 61.6263 67.5021C57.7976 66.1979 53.0553 66.0892 49.0309 67.1978ZM35.783 81.4787L51.5979 72.3494C53.3382 71.3495 56.1878 71.3495 57.9281 72.3494C59.6684 73.3492 59.6684 75.0012 57.9281 76.0011L42.1133 85.1304L35.783 81.4787ZM70.5887 83.3046L54.7739 92.4339L48.4436 88.7822L64.2584 79.6528C65.9987 78.653 68.8484 78.653 70.5887 79.6528C72.329 80.6527 72.329 82.2829 70.5887 83.3046Z" fill="white"/>
<path d="M0.107239 66.3936L109.441 67.3065V82.4569C109.441 90.5211 104.111 98.6072 93.4299 104.759C72.0897 117.083 37.4581 117.083 16.1178 104.759C5.43686 98.6072 0.107239 90.5211 0.107239 82.4569V66.3936Z" fill="url(#paint38_linear_1_1433)"/>
<path d="M5.41512 64.4807H3.58783V115.801H5.41512V64.4807Z" fill="url(#paint39_linear_1_1433)"/>
<path d="M11.6801 64.4807H9.85284V115.801H11.6801V64.4807Z" fill="url(#paint40_linear_1_1433)"/>
<path d="M17.9669 64.4807H16.1396V115.801H17.9669V64.4807Z" fill="url(#paint41_linear_1_1433)"/>
<path d="M24.2537 64.4807H22.4264V115.801H24.2537V64.4807Z" fill="url(#paint42_linear_1_1433)"/>
<path d="M30.5405 64.4807H28.7131V115.801H30.5405V64.4807Z" fill="url(#paint43_linear_1_1433)"/>
<path d="M36.8272 64.4807H34.9999V115.801H36.8272V64.4807Z" fill="url(#paint44_linear_1_1433)"/>
<path d="M43.114 64.4807H41.2867V115.801H43.114V64.4807Z" fill="url(#paint45_linear_1_1433)"/>
<path d="M49.4008 64.4807H47.5735V115.801H49.4008V64.4807Z" fill="url(#paint46_linear_1_1433)"/>
<path d="M55.6875 64.4807H53.8602V115.801H55.6875V64.4807Z" fill="url(#paint47_linear_1_1433)"/>
<path d="M61.9743 64.4807H60.147V115.801H61.9743V64.4807Z" fill="url(#paint48_linear_1_1433)"/>
<path d="M68.2611 64.4807H66.4338V115.801H68.2611V64.4807Z" fill="url(#paint49_linear_1_1433)"/>
<path d="M74.5479 64.4807H72.7206V115.801H74.5479V64.4807Z" fill="url(#paint50_linear_1_1433)"/>
<path d="M80.8129 64.4807H78.9856V115.801H80.8129V64.4807Z" fill="url(#paint51_linear_1_1433)"/>
<path d="M87.0996 64.4807H85.2723V115.801H87.0996V64.4807Z" fill="url(#paint52_linear_1_1433)"/>
<path d="M93.3864 64.4807H91.5591V115.801H93.3864V64.4807Z" fill="url(#paint53_linear_1_1433)"/>
<path d="M99.6732 64.4807H97.8459V115.801H99.6732V64.4807Z" fill="url(#paint54_linear_1_1433)"/>
<path d="M105.96 64.4807H104.133V115.801H105.96V64.4807Z" fill="url(#paint55_linear_1_1433)"/>
<path d="M54.7739 99.4114C84.9654 99.4114 109.441 85.2906 109.441 67.8717C109.441 50.4528 84.9654 36.3319 54.7739 36.3319C24.5823 36.3319 0.107239 50.4528 0.107239 67.8717C0.107239 85.2906 24.5823 99.4114 54.7739 99.4114Z" fill="url(#paint56_linear_1_1433)"/>
<path d="M88.5353 85.8696C69.8925 96.6292 39.6551 96.6292 21.0124 85.8696C2.36958 75.11 2.36958 57.6772 21.0124 46.9176C39.6551 36.158 69.8925 36.158 88.5353 46.9176C107.178 57.6772 107.178 75.11 88.5353 85.8696Z" stroke="#61C196" stroke-width="0.8386" stroke-miterlimit="10"/>
<path d="M49.0309 49.2869L42.1133 45.3091L35.783 48.9608L42.1133 52.6126L35.783 56.2643L29.4528 52.6126L23.1225 56.2643L29.4528 59.9161L23.1225 63.5678L54.7521 81.8048L61.0824 78.153L67.4127 81.8048L73.743 78.153L67.4127 74.5013L73.743 70.8495L80.0733 74.5013L86.4036 70.8495L79.4859 66.8718C81.4437 64.5459 81.2479 61.8071 78.942 59.59C76.6579 57.3729 72.5683 55.96 68.1088 55.8513C67.913 53.2646 65.4766 50.9171 61.6263 49.5912C57.7976 48.2653 53.0553 48.1566 49.0309 49.2869ZM35.783 63.5461L51.5979 54.4167C53.3382 53.4168 56.1878 53.4168 57.9281 54.4167C59.6684 55.4166 59.6684 57.0686 57.9281 58.0684L42.1133 67.1978L35.783 63.5461ZM70.5887 65.3719L54.7739 74.5013L48.4436 70.8495L64.2584 61.7202C65.9987 60.7203 68.8484 60.7203 70.5887 61.7202C72.329 62.7418 72.329 64.372 70.5887 65.3719Z" fill="white"/>
<path d="M0.107239 48.4825L109.441 49.3955V64.5459C109.441 72.6101 104.111 80.6962 93.4299 86.8476C72.0897 99.1722 37.4581 99.1722 16.1178 86.8476C5.43686 80.6962 0.107239 72.6101 0.107239 64.5459V48.4825Z" fill="url(#paint57_linear_1_1433)"/>
<path d="M5.41512 46.548H3.58783V97.868H5.41512V46.548Z" fill="url(#paint58_linear_1_1433)"/>
<path d="M11.6801 46.548H9.85284V97.868H11.6801V46.548Z" fill="url(#paint59_linear_1_1433)"/>
<path d="M17.9669 46.548H16.1396V97.868H17.9669V46.548Z" fill="url(#paint60_linear_1_1433)"/>
<path d="M24.2537 46.548H22.4264V97.868H24.2537V46.548Z" fill="url(#paint61_linear_1_1433)"/>
<path d="M30.5405 46.548H28.7131V97.868H30.5405V46.548Z" fill="url(#paint62_linear_1_1433)"/>
<path d="M36.8272 46.548H34.9999V97.868H36.8272V46.548Z" fill="url(#paint63_linear_1_1433)"/>
<path d="M43.114 46.548H41.2867V97.868H43.114V46.548Z" fill="url(#paint64_linear_1_1433)"/>
<path d="M49.4008 46.548H47.5735V97.868H49.4008V46.548Z" fill="url(#paint65_linear_1_1433)"/>
<path d="M55.6875 46.548H53.8602V97.868H55.6875V46.548Z" fill="url(#paint66_linear_1_1433)"/>
<path d="M61.9743 46.548H60.147V97.868H61.9743V46.548Z" fill="url(#paint67_linear_1_1433)"/>
<path d="M68.2611 46.548H66.4338V97.868H68.2611V46.548Z" fill="url(#paint68_linear_1_1433)"/>
<path d="M74.5479 46.548H72.7206V97.868H74.5479V46.548Z" fill="url(#paint69_linear_1_1433)"/>
<path d="M80.8129 46.548H78.9856V97.868H80.8129V46.548Z" fill="url(#paint70_linear_1_1433)"/>
<path d="M87.0996 46.548H85.2723V97.868H87.0996V46.548Z" fill="url(#paint71_linear_1_1433)"/>
<path d="M93.3864 46.548H91.5591V97.868H93.3864V46.548Z" fill="url(#paint72_linear_1_1433)"/>
<path d="M99.6732 46.548H97.8459V97.868H99.6732V46.548Z" fill="url(#paint73_linear_1_1433)"/>
<path d="M105.96 46.548H104.133V97.868H105.96V46.548Z" fill="url(#paint74_linear_1_1433)"/>
<path d="M54.7739 81.4787C84.9654 81.4787 109.441 67.3579 109.441 49.9389C109.441 32.52 84.9654 18.3992 54.7739 18.3992C24.5823 18.3992 0.107239 32.52 0.107239 49.9389C0.107239 67.3579 24.5823 81.4787 54.7739 81.4787Z" fill="url(#paint75_linear_1_1433)"/>
<path d="M88.5353 67.9585C69.8925 78.7181 39.6551 78.7181 21.0124 67.9585C2.36958 57.1989 2.36958 39.7662 21.0124 29.0066C39.6551 18.247 69.8925 18.247 88.5353 29.0066C107.178 39.7662 107.178 57.1989 88.5353 67.9585Z" stroke="#61C196" stroke-width="0.8386" stroke-miterlimit="10"/>
<path d="M49.0309 31.3759L42.1133 27.3981L35.783 31.0498L42.1133 34.7016L35.783 38.3533L29.4528 34.7016L23.1225 38.3533L29.4528 42.005L23.1225 45.6568L54.7521 63.8938L61.0824 60.242L67.4127 63.8938L73.743 60.242L67.4127 56.5903L73.743 52.9385L80.0733 56.5903L86.4036 52.9385L79.4859 48.9607C81.4437 46.6349 81.2479 43.8961 78.942 41.679C76.6579 39.4619 72.5683 38.049 68.1088 37.9403C67.913 35.3537 65.4766 33.0061 61.6263 31.6802C57.7976 30.3542 53.0553 30.2456 49.0309 31.3759ZM35.783 45.635L51.5979 36.5057C53.3382 35.5058 56.1878 35.5058 57.9281 36.5057C59.6684 37.5056 59.6684 39.1576 57.9281 40.1575L42.1133 49.2868L35.783 45.635ZM70.5887 47.4609L54.7739 56.5903L48.4436 52.9385L64.2584 43.8092C65.9987 42.8093 68.8484 42.8093 70.5887 43.8092C72.329 44.8091 72.329 46.4393 70.5887 47.4609Z" fill="white"/>
<path d="M0.107239 30.5499L109.441 31.4629V46.6132C109.441 54.6775 104.111 62.7635 93.4299 68.915C72.0897 81.2396 37.4581 81.2396 16.1178 68.915C5.43686 62.7635 0.107239 54.6775 0.107239 46.6132V30.5499Z" fill="url(#paint76_linear_1_1433)"/>
<path d="M5.41512 28.6371H3.58783V79.9571H5.41512V28.6371Z" fill="url(#paint77_linear_1_1433)"/>
<path d="M11.6801 28.6371H9.85284V79.9571H11.6801V28.6371Z" fill="url(#paint78_linear_1_1433)"/>
<path d="M17.9669 28.6371H16.1396V79.9571H17.9669V28.6371Z" fill="url(#paint79_linear_1_1433)"/>
<path d="M24.2537 28.6371H22.4264V79.9571H24.2537V28.6371Z" fill="url(#paint80_linear_1_1433)"/>
<path d="M30.5405 28.6371H28.7131V79.9571H30.5405V28.6371Z" fill="url(#paint81_linear_1_1433)"/>
<path d="M36.8272 28.6371H34.9999V79.9571H36.8272V28.6371Z" fill="url(#paint82_linear_1_1433)"/>
<path d="M43.114 28.6371H41.2867V79.9571H43.114V28.6371Z" fill="url(#paint83_linear_1_1433)"/>
<path d="M49.4008 28.6371H47.5735V79.9571H49.4008V28.6371Z" fill="url(#paint84_linear_1_1433)"/>
<path d="M55.6875 28.6371H53.8602V79.9571H55.6875V28.6371Z" fill="url(#paint85_linear_1_1433)"/>
<path d="M61.9743 28.6371H60.147V79.9571H61.9743V28.6371Z" fill="url(#paint86_linear_1_1433)"/>
<path d="M68.2611 28.6371H66.4338V79.9571H68.2611V28.6371Z" fill="url(#paint87_linear_1_1433)"/>
<path d="M74.5479 28.6371H72.7206V79.9571H74.5479V28.6371Z" fill="url(#paint88_linear_1_1433)"/>
<path d="M80.8129 28.6371H78.9856V79.9571H80.8129V28.6371Z" fill="url(#paint89_linear_1_1433)"/>
<path d="M87.0996 28.6371H85.2723V79.9571H87.0996V28.6371Z" fill="url(#paint90_linear_1_1433)"/>
<path d="M93.3864 28.6371H91.5591V79.9571H93.3864V28.6371Z" fill="url(#paint91_linear_1_1433)"/>
<path d="M99.6732 28.6371H97.8459V79.9571H99.6732V28.6371Z" fill="url(#paint92_linear_1_1433)"/>
<path d="M105.96 28.6371H104.133V79.9571H105.96V28.6371Z" fill="url(#paint93_linear_1_1433)"/>
<path d="M54.7739 63.5678C84.9654 63.5678 109.441 49.447 109.441 32.028C109.441 14.6091 84.9654 0.488281 54.7739 0.488281C24.5823 0.488281 0.107239 14.6091 0.107239 32.028C0.107239 49.447 24.5823 63.5678 54.7739 63.5678Z" fill="url(#paint94_linear_1_1433)"/>
<path d="M88.5353 50.0259C69.8925 60.7855 39.6551 60.7855 21.0124 50.0259C2.36958 39.2663 2.36958 21.8336 21.0124 11.074C39.6551 0.314373 69.8925 0.314373 88.5353 11.074C107.178 21.8336 107.178 39.288 88.5353 50.0259Z" stroke="url(#paint95_linear_1_1433)" stroke-width="0.8299" stroke-miterlimit="10"/>
<path d="M49.0309 13.4432L42.1133 9.46545L35.783 13.1172L42.1133 16.7689L35.783 20.4207L29.4528 16.7689L23.1225 20.4207L29.4528 24.0724L23.1225 27.7242L54.7521 45.9612L61.0824 42.3094L67.4127 45.9612L73.743 42.3094L67.4127 38.6577L73.743 35.0059L80.0733 38.6577L86.4036 35.0059L79.4859 31.0281C81.4437 28.7023 81.2479 25.9635 78.942 23.7464C76.6579 21.5293 72.5683 20.1164 68.1088 20.0077C67.913 17.421 65.4766 15.0735 61.6263 13.7476C57.7976 12.4434 53.0553 12.3129 49.0309 13.4432ZM35.783 27.7024L51.5979 18.5731C53.3382 17.5732 56.1878 17.5732 57.9281 18.5731C59.6684 19.573 59.6684 21.225 57.9281 22.2248L42.1133 31.3542L35.783 27.7024ZM70.5887 29.5283L54.7739 38.6577L48.4436 35.0059L64.2584 25.8766C65.9987 24.8767 68.8484 24.8767 70.5887 25.8766C72.329 26.8982 72.329 28.5284 70.5887 29.5283Z" fill="#61C196"/>
<defs>
<linearGradient id="paint0_linear_1_1433" x1="54.7684" y1="121.451" x2="54.7684" y2="167.95" gradientUnits="userSpaceOnUse">
<stop stop-color="#29296B"/>
<stop offset="0.455" stop-color="#435DAA"/>
<stop offset="0.6931" stop-color="#579DD5"/>
</linearGradient>
<linearGradient id="paint1_linear_1_1433" x1="4.4906" y1="151.638" x2="4.4906" y2="100.314" gradientUnits="userSpaceOnUse">
<stop stop-color="#29296B"/>
<stop offset="0.455" stop-color="#435DAA"/>
<stop offset="0.6931" stop-color="#579DD5"/>
</linearGradient>
<linearGradient id="paint2_linear_1_1433" x1="10.775" y1="151.638" x2="10.775" y2="100.314" gradientUnits="userSpaceOnUse">
<stop stop-color="#29296B"/>
<stop offset="0.455" stop-color="#435DAA"/>
<stop offset="0.6931" stop-color="#579DD5"/>
</linearGradient>
<linearGradient id="paint3_linear_1_1433" x1="17.06" y1="151.638" x2="17.06" y2="100.314" gradientUnits="userSpaceOnUse">
<stop stop-color="#29296B"/>
<stop offset="0.455" stop-color="#435DAA"/>
<stop offset="0.6931" stop-color="#579DD5"/>
</linearGradient>
<linearGradient id="paint4_linear_1_1433" x1="23.3451" y1="151.638" x2="23.3451" y2="100.314" gradientUnits="userSpaceOnUse">
<stop stop-color="#29296B"/>
<stop offset="0.455" stop-color="#435DAA"/>
<stop offset="0.6931" stop-color="#579DD5"/>
</linearGradient>
<linearGradient id="paint5_linear_1_1433" x1="29.6292" y1="151.638" x2="29.6292" y2="100.314" gradientUnits="userSpaceOnUse">
<stop stop-color="#29296B"/>
<stop offset="0.455" stop-color="#435DAA"/>
<stop offset="0.6931" stop-color="#579DD5"/>
</linearGradient>
<linearGradient id="paint6_linear_1_1433" x1="35.9142" y1="151.638" x2="35.9142" y2="100.314" gradientUnits="userSpaceOnUse">
<stop stop-color="#29296B"/>
<stop offset="0.455" stop-color="#435DAA"/>
<stop offset="0.6931" stop-color="#579DD5"/>
</linearGradient>
<linearGradient id="paint7_linear_1_1433" x1="42.1992" y1="151.638" x2="42.1992" y2="100.314" gradientUnits="userSpaceOnUse">
<stop stop-color="#29296B"/>
<stop offset="0.455" stop-color="#435DAA"/>
<stop offset="0.6931" stop-color="#579DD5"/>
</linearGradient>
<linearGradient id="paint8_linear_1_1433" x1="48.4837" y1="151.638" x2="48.4837" y2="100.314" gradientUnits="userSpaceOnUse">
<stop stop-color="#29296B"/>
<stop offset="0.455" stop-color="#435DAA"/>
<stop offset="0.6931" stop-color="#579DD5"/>
</linearGradient>
<linearGradient id="paint9_linear_1_1433" x1="54.7684" y1="151.638" x2="54.7684" y2="100.314" gradientUnits="userSpaceOnUse">
<stop stop-color="#29296B"/>
<stop offset="0.455" stop-color="#435DAA"/>
<stop offset="0.6931" stop-color="#579DD5"/>
</linearGradient>
<linearGradient id="paint10_linear_1_1433" x1="61.0535" y1="151.638" x2="61.0535" y2="100.314" gradientUnits="userSpaceOnUse">
<stop stop-color="#29296B"/>
<stop offset="0.455" stop-color="#435DAA"/>
<stop offset="0.6931" stop-color="#579DD5"/>
</linearGradient>
<linearGradient id="paint11_linear_1_1433" x1="67.3376" y1="151.638" x2="67.3376" y2="100.314" gradientUnits="userSpaceOnUse">
<stop stop-color="#29296B"/>
<stop offset="0.455" stop-color="#435DAA"/>
<stop offset="0.6931" stop-color="#579DD5"/>
</linearGradient>
<linearGradient id="paint12_linear_1_1433" x1="73.6227" y1="151.638" x2="73.6227" y2="100.314" gradientUnits="userSpaceOnUse">
<stop stop-color="#29296B"/>
<stop offset="0.455" stop-color="#435DAA"/>
<stop offset="0.6931" stop-color="#579DD5"/>
</linearGradient>
<linearGradient id="paint13_linear_1_1433" x1="79.9077" y1="151.638" x2="79.9077" y2="100.314" gradientUnits="userSpaceOnUse">
<stop stop-color="#29296B"/>
<stop offset="0.455" stop-color="#435DAA"/>
<stop offset="0.6931" stop-color="#579DD5"/>
</linearGradient>
<linearGradient id="paint14_linear_1_1433" x1="86.1921" y1="151.638" x2="86.1921" y2="100.314" gradientUnits="userSpaceOnUse">
<stop stop-color="#29296B"/>
<stop offset="0.455" stop-color="#435DAA"/>
<stop offset="0.6931" stop-color="#579DD5"/>
</linearGradient>
<linearGradient id="paint15_linear_1_1433" x1="92.4769" y1="151.638" x2="92.4769" y2="100.314" gradientUnits="userSpaceOnUse">
<stop stop-color="#29296B"/>
<stop offset="0.455" stop-color="#435DAA"/>
<stop offset="0.6931" stop-color="#579DD5"/>
</linearGradient>
<linearGradient id="paint16_linear_1_1433" x1="98.7619" y1="151.638" x2="98.7619" y2="100.314" gradientUnits="userSpaceOnUse">
<stop stop-color="#29296B"/>
<stop offset="0.455" stop-color="#435DAA"/>
<stop offset="0.6931" stop-color="#579DD5"/>
</linearGradient>
<linearGradient id="paint17_linear_1_1433" x1="105.046" y1="151.638" x2="105.046" y2="100.314" gradientUnits="userSpaceOnUse">
<stop stop-color="#29296B"/>
<stop offset="0.455" stop-color="#435DAA"/>
<stop offset="0.6931" stop-color="#579DD5"/>
</linearGradient>
<linearGradient id="paint18_linear_1_1433" x1="50.7904" y1="69.3744" x2="60.3457" y2="151.961" gradientUnits="userSpaceOnUse">
<stop stop-color="#29296B"/>
<stop offset="0.455" stop-color="#435DAA"/>
<stop offset="0.6931" stop-color="#579DD5"/>
</linearGradient>
<linearGradient id="paint19_linear_1_1433" x1="54.7684" y1="103.532" x2="54.7684" y2="150.031" gradientUnits="userSpaceOnUse">
<stop stop-color="#29296B"/>
<stop offset="0.455" stop-color="#435DAA"/>
<stop offset="0.6931" stop-color="#579DD5"/>
</linearGradient>
<linearGradient id="paint20_linear_1_1433" x1="4.4906" y1="133.719" x2="4.4906" y2="82.3942" gradientUnits="userSpaceOnUse">
<stop stop-color="#29296B"/>
<stop offset="0.455" stop-color="#435DAA"/>
<stop offset="0.6931" stop-color="#579DD5"/>
</linearGradient>
<linearGradient id="paint21_linear_1_1433" x1="10.775" y1="133.719" x2="10.775" y2="82.3942" gradientUnits="userSpaceOnUse">
<stop stop-color="#29296B"/>
<stop offset="0.455" stop-color="#435DAA"/>
<stop offset="0.6931" stop-color="#579DD5"/>
</linearGradient>
<linearGradient id="paint22_linear_1_1433" x1="17.06" y1="133.719" x2="17.06" y2="82.3942" gradientUnits="userSpaceOnUse">
<stop stop-color="#29296B"/>
<stop offset="0.455" stop-color="#435DAA"/>
<stop offset="0.6931" stop-color="#579DD5"/>
</linearGradient>
<linearGradient id="paint23_linear_1_1433" x1="23.3451" y1="133.719" x2="23.3451" y2="82.3942" gradientUnits="userSpaceOnUse">
<stop stop-color="#29296B"/>
<stop offset="0.455" stop-color="#435DAA"/>
<stop offset="0.6931" stop-color="#579DD5"/>
</linearGradient>
<linearGradient id="paint24_linear_1_1433" x1="29.6292" y1="133.719" x2="29.6292" y2="82.3942" gradientUnits="userSpaceOnUse">
<stop stop-color="#29296B"/>
<stop offset="0.455" stop-color="#435DAA"/>
<stop offset="0.6931" stop-color="#579DD5"/>
</linearGradient>
<linearGradient id="paint25_linear_1_1433" x1="35.9142" y1="133.719" x2="35.9142" y2="82.3942" gradientUnits="userSpaceOnUse">
<stop stop-color="#29296B"/>
<stop offset="0.455" stop-color="#435DAA"/>
<stop offset="0.6931" stop-color="#579DD5"/>
</linearGradient>
<linearGradient id="paint26_linear_1_1433" x1="42.1992" y1="133.719" x2="42.1992" y2="82.3942" gradientUnits="userSpaceOnUse">
<stop stop-color="#29296B"/>
<stop offset="0.455" stop-color="#435DAA"/>
<stop offset="0.6931" stop-color="#579DD5"/>
</linearGradient>
<linearGradient id="paint27_linear_1_1433" x1="48.4836" y1="133.719" x2="48.4836" y2="82.3942" gradientUnits="userSpaceOnUse">
<stop stop-color="#29296B"/>
<stop offset="0.455" stop-color="#435DAA"/>
<stop offset="0.6931" stop-color="#579DD5"/>
</linearGradient>
<linearGradient id="paint28_linear_1_1433" x1="54.7684" y1="133.719" x2="54.7684" y2="82.3942" gradientUnits="userSpaceOnUse">
<stop stop-color="#29296B"/>
<stop offset="0.455" stop-color="#435DAA"/>
<stop offset="0.6931" stop-color="#579DD5"/>
</linearGradient>
<linearGradient id="paint29_linear_1_1433" x1="61.0535" y1="133.719" x2="61.0535" y2="82.3942" gradientUnits="userSpaceOnUse">
<stop stop-color="#29296B"/>
<stop offset="0.455" stop-color="#435DAA"/>
<stop offset="0.6931" stop-color="#579DD5"/>
</linearGradient>
<linearGradient id="paint30_linear_1_1433" x1="67.3376" y1="133.719" x2="67.3376" y2="82.3942" gradientUnits="userSpaceOnUse">
<stop stop-color="#29296B"/>
<stop offset="0.455" stop-color="#435DAA"/>
<stop offset="0.6931" stop-color="#579DD5"/>
</linearGradient>
<linearGradient id="paint31_linear_1_1433" x1="73.6227" y1="133.719" x2="73.6227" y2="82.3942" gradientUnits="userSpaceOnUse">
<stop stop-color="#29296B"/>
<stop offset="0.455" stop-color="#435DAA"/>
<stop offset="0.6931" stop-color="#579DD5"/>
</linearGradient>
<linearGradient id="paint32_linear_1_1433" x1="79.9077" y1="133.719" x2="79.9077" y2="82.3942" gradientUnits="userSpaceOnUse">
<stop stop-color="#29296B"/>
<stop offset="0.455" stop-color="#435DAA"/>
<stop offset="0.6931" stop-color="#579DD5"/>
</linearGradient>
<linearGradient id="paint33_linear_1_1433" x1="86.1921" y1="133.719" x2="86.1921" y2="82.3942" gradientUnits="userSpaceOnUse">
<stop stop-color="#29296B"/>
<stop offset="0.455" stop-color="#435DAA"/>
<stop offset="0.6931" stop-color="#579DD5"/>
</linearGradient>
<linearGradient id="paint34_linear_1_1433" x1="92.4769" y1="133.719" x2="92.4769" y2="82.3942" gradientUnits="userSpaceOnUse">
<stop stop-color="#29296B"/>
<stop offset="0.455" stop-color="#435DAA"/>
<stop offset="0.6931" stop-color="#579DD5"/>
</linearGradient>
<linearGradient id="paint35_linear_1_1433" x1="98.7619" y1="133.719" x2="98.7619" y2="82.3942" gradientUnits="userSpaceOnUse">
<stop stop-color="#29296B"/>
<stop offset="0.455" stop-color="#435DAA"/>
<stop offset="0.6931" stop-color="#579DD5"/>
</linearGradient>
<linearGradient id="paint36_linear_1_1433" x1="105.046" y1="133.719" x2="105.046" y2="82.3942" gradientUnits="userSpaceOnUse">
<stop stop-color="#29296B"/>
<stop offset="0.455" stop-color="#435DAA"/>
<stop offset="0.6931" stop-color="#579DD5"/>
</linearGradient>
<linearGradient id="paint37_linear_1_1433" x1="50.7906" y1="51.4553" x2="60.3457" y2="134.042" gradientUnits="userSpaceOnUse">
<stop stop-color="#29296B"/>
<stop offset="0.455" stop-color="#435DAA"/>
<stop offset="0.6931" stop-color="#579DD5"/>
</linearGradient>
<linearGradient id="paint38_linear_1_1433" x1="54.7684" y1="85.6126" x2="54.7684" y2="132.111" gradientUnits="userSpaceOnUse">
<stop stop-color="#29296B"/>
<stop offset="0.455" stop-color="#435DAA"/>
<stop offset="0.6931" stop-color="#579DD5"/>
</linearGradient>
<linearGradient id="paint39_linear_1_1433" x1="4.4906" y1="115.799" x2="4.4906" y2="64.4751" gradientUnits="userSpaceOnUse">
<stop stop-color="#29296B"/>
<stop offset="0.455" stop-color="#435DAA"/>
<stop offset="0.6931" stop-color="#579DD5"/>
</linearGradient>
<linearGradient id="paint40_linear_1_1433" x1="10.775" y1="115.799" x2="10.775" y2="64.4751" gradientUnits="userSpaceOnUse">
<stop stop-color="#29296B"/>
<stop offset="0.455" stop-color="#435DAA"/>
<stop offset="0.6931" stop-color="#579DD5"/>
</linearGradient>
<linearGradient id="paint41_linear_1_1433" x1="17.06" y1="115.799" x2="17.06" y2="64.4751" gradientUnits="userSpaceOnUse">
<stop stop-color="#29296B"/>
<stop offset="0.455" stop-color="#435DAA"/>
<stop offset="0.6931" stop-color="#579DD5"/>
</linearGradient>
<linearGradient id="paint42_linear_1_1433" x1="23.3451" y1="115.799" x2="23.3451" y2="64.4751" gradientUnits="userSpaceOnUse">
<stop stop-color="#29296B"/>
<stop offset="0.455" stop-color="#435DAA"/>
<stop offset="0.6931" stop-color="#579DD5"/>
</linearGradient>
<linearGradient id="paint43_linear_1_1433" x1="29.6292" y1="115.799" x2="29.6292" y2="64.4751" gradientUnits="userSpaceOnUse">
<stop stop-color="#29296B"/>
<stop offset="0.455" stop-color="#435DAA"/>
<stop offset="0.6931" stop-color="#579DD5"/>
</linearGradient>
<linearGradient id="paint44_linear_1_1433" x1="35.9142" y1="115.799" x2="35.9142" y2="64.4751" gradientUnits="userSpaceOnUse">
<stop stop-color="#29296B"/>
<stop offset="0.455" stop-color="#435DAA"/>
<stop offset="0.6931" stop-color="#579DD5"/>
</linearGradient>
<linearGradient id="paint45_linear_1_1433" x1="42.1992" y1="115.799" x2="42.1992" y2="64.4751" gradientUnits="userSpaceOnUse">
<stop stop-color="#29296B"/>
<stop offset="0.455" stop-color="#435DAA"/>
<stop offset="0.6931" stop-color="#579DD5"/>
</linearGradient>
<linearGradient id="paint46_linear_1_1433" x1="48.4837" y1="115.799" x2="48.4837" y2="64.4751" gradientUnits="userSpaceOnUse">
<stop stop-color="#29296B"/>
<stop offset="0.455" stop-color="#435DAA"/>
<stop offset="0.6931" stop-color="#579DD5"/>
</linearGradient>
<linearGradient id="paint47_linear_1_1433" x1="54.7684" y1="115.799" x2="54.7684" y2="64.4751" gradientUnits="userSpaceOnUse">
<stop stop-color="#29296B"/>
<stop offset="0.455" stop-color="#435DAA"/>
<stop offset="0.6931" stop-color="#579DD5"/>
</linearGradient>
<linearGradient id="paint48_linear_1_1433" x1="61.0535" y1="115.799" x2="61.0535" y2="64.4751" gradientUnits="userSpaceOnUse">
<stop stop-color="#29296B"/>
<stop offset="0.455" stop-color="#435DAA"/>
<stop offset="0.6931" stop-color="#579DD5"/>
</linearGradient>
<linearGradient id="paint49_linear_1_1433" x1="67.3376" y1="115.799" x2="67.3376" y2="64.4751" gradientUnits="userSpaceOnUse">
<stop stop-color="#29296B"/>
<stop offset="0.455" stop-color="#435DAA"/>
<stop offset="0.6931" stop-color="#579DD5"/>
</linearGradient>
<linearGradient id="paint50_linear_1_1433" x1="73.6227" y1="115.799" x2="73.6227" y2="64.4751" gradientUnits="userSpaceOnUse">
<stop stop-color="#29296B"/>
<stop offset="0.455" stop-color="#435DAA"/>
<stop offset="0.6931" stop-color="#579DD5"/>
</linearGradient>
<linearGradient id="paint51_linear_1_1433" x1="79.9077" y1="115.799" x2="79.9077" y2="64.4751" gradientUnits="userSpaceOnUse">
<stop stop-color="#29296B"/>
<stop offset="0.455" stop-color="#435DAA"/>
<stop offset="0.6931" stop-color="#579DD5"/>
</linearGradient>
<linearGradient id="paint52_linear_1_1433" x1="86.1921" y1="115.799" x2="86.1921" y2="64.4751" gradientUnits="userSpaceOnUse">
<stop stop-color="#29296B"/>
<stop offset="0.455" stop-color="#435DAA"/>
<stop offset="0.6931" stop-color="#579DD5"/>
</linearGradient>
<linearGradient id="paint53_linear_1_1433" x1="92.4769" y1="115.799" x2="92.4769" y2="64.4751" gradientUnits="userSpaceOnUse">
<stop stop-color="#29296B"/>
<stop offset="0.455" stop-color="#435DAA"/>
<stop offset="0.6931" stop-color="#579DD5"/>
</linearGradient>
<linearGradient id="paint54_linear_1_1433" x1="98.7619" y1="115.799" x2="98.7619" y2="64.4751" gradientUnits="userSpaceOnUse">
<stop stop-color="#29296B"/>
<stop offset="0.455" stop-color="#435DAA"/>
<stop offset="0.6931" stop-color="#579DD5"/>
</linearGradient>
<linearGradient id="paint55_linear_1_1433" x1="105.046" y1="115.799" x2="105.046" y2="64.4751" gradientUnits="userSpaceOnUse">
<stop stop-color="#29296B"/>
<stop offset="0.455" stop-color="#435DAA"/>
<stop offset="0.6931" stop-color="#579DD5"/>
</linearGradient>
<linearGradient id="paint56_linear_1_1433" x1="50.7904" y1="33.5359" x2="60.3457" y2="116.123" gradientUnits="userSpaceOnUse">
<stop stop-color="#29296B"/>
<stop offset="0.455" stop-color="#435DAA"/>
<stop offset="0.6931" stop-color="#579DD5"/>
</linearGradient>
<linearGradient id="paint57_linear_1_1433" x1="54.7684" y1="67.6931" x2="54.7684" y2="114.192" gradientUnits="userSpaceOnUse">
<stop stop-color="#29296B"/>
<stop offset="0.455" stop-color="#435DAA"/>
<stop offset="0.6931" stop-color="#579DD5"/>
</linearGradient>
<linearGradient id="paint58_linear_1_1433" x1="4.4906" y1="97.88" x2="4.4906" y2="46.5558" gradientUnits="userSpaceOnUse">
<stop stop-color="#29296B"/>
<stop offset="0.455" stop-color="#435DAA"/>
<stop offset="0.6931" stop-color="#579DD5"/>
</linearGradient>
<linearGradient id="paint59_linear_1_1433" x1="10.775" y1="97.88" x2="10.775" y2="46.5558" gradientUnits="userSpaceOnUse">
<stop stop-color="#29296B"/>
<stop offset="0.455" stop-color="#435DAA"/>
<stop offset="0.6931" stop-color="#579DD5"/>
</linearGradient>
<linearGradient id="paint60_linear_1_1433" x1="17.06" y1="97.88" x2="17.06" y2="46.5558" gradientUnits="userSpaceOnUse">
<stop stop-color="#29296B"/>
<stop offset="0.455" stop-color="#435DAA"/>
<stop offset="0.6931" stop-color="#579DD5"/>
</linearGradient>
<linearGradient id="paint61_linear_1_1433" x1="23.3451" y1="97.88" x2="23.3451" y2="46.5558" gradientUnits="userSpaceOnUse">
<stop stop-color="#29296B"/>
<stop offset="0.455" stop-color="#435DAA"/>
<stop offset="0.6931" stop-color="#579DD5"/>
</linearGradient>
<linearGradient id="paint62_linear_1_1433" x1="29.6292" y1="97.88" x2="29.6292" y2="46.5558" gradientUnits="userSpaceOnUse">
<stop stop-color="#29296B"/>
<stop offset="0.455" stop-color="#435DAA"/>
<stop offset="0.6931" stop-color="#579DD5"/>
</linearGradient>
<linearGradient id="paint63_linear_1_1433" x1="35.9142" y1="97.88" x2="35.9142" y2="46.5558" gradientUnits="userSpaceOnUse">
<stop stop-color="#29296B"/>
<stop offset="0.455" stop-color="#435DAA"/>
<stop offset="0.6931" stop-color="#579DD5"/>
</linearGradient>
<linearGradient id="paint64_linear_1_1433" x1="42.1992" y1="97.88" x2="42.1992" y2="46.5558" gradientUnits="userSpaceOnUse">
<stop stop-color="#29296B"/>
<stop offset="0.455" stop-color="#435DAA"/>
<stop offset="0.6931" stop-color="#579DD5"/>
</linearGradient>
<linearGradient id="paint65_linear_1_1433" x1="48.4836" y1="97.88" x2="48.4836" y2="46.5558" gradientUnits="userSpaceOnUse">
<stop stop-color="#29296B"/>
<stop offset="0.455" stop-color="#435DAA"/>
<stop offset="0.6931" stop-color="#579DD5"/>
</linearGradient>
<linearGradient id="paint66_linear_1_1433" x1="54.7684" y1="97.88" x2="54.7684" y2="46.5558" gradientUnits="userSpaceOnUse">
<stop stop-color="#29296B"/>
<stop offset="0.455" stop-color="#435DAA"/>
<stop offset="0.6931" stop-color="#579DD5"/>
</linearGradient>
<linearGradient id="paint67_linear_1_1433" x1="61.0535" y1="97.88" x2="61.0535" y2="46.5558" gradientUnits="userSpaceOnUse">
<stop stop-color="#29296B"/>
<stop offset="0.455" stop-color="#435DAA"/>
<stop offset="0.6931" stop-color="#579DD5"/>
</linearGradient>
<linearGradient id="paint68_linear_1_1433" x1="67.3376" y1="97.88" x2="67.3376" y2="46.5558" gradientUnits="userSpaceOnUse">
<stop stop-color="#29296B"/>
<stop offset="0.455" stop-color="#435DAA"/>
<stop offset="0.6931" stop-color="#579DD5"/>
</linearGradient>
<linearGradient id="paint69_linear_1_1433" x1="73.6227" y1="97.88" x2="73.6227" y2="46.5558" gradientUnits="userSpaceOnUse">
<stop stop-color="#29296B"/>
<stop offset="0.455" stop-color="#435DAA"/>
<stop offset="0.6931" stop-color="#579DD5"/>
</linearGradient>
<linearGradient id="paint70_linear_1_1433" x1="79.9077" y1="97.88" x2="79.9077" y2="46.5558" gradientUnits="userSpaceOnUse">
<stop stop-color="#29296B"/>
<stop offset="0.455" stop-color="#435DAA"/>
<stop offset="0.6931" stop-color="#579DD5"/>
</linearGradient>
<linearGradient id="paint71_linear_1_1433" x1="86.1921" y1="97.88" x2="86.1921" y2="46.5558" gradientUnits="userSpaceOnUse">
<stop stop-color="#29296B"/>
<stop offset="0.455" stop-color="#435DAA"/>
<stop offset="0.6931" stop-color="#579DD5"/>
</linearGradient>
<linearGradient id="paint72_linear_1_1433" x1="92.4769" y1="97.88" x2="92.4769" y2="46.5558" gradientUnits="userSpaceOnUse">
<stop stop-color="#29296B"/>
<stop offset="0.455" stop-color="#435DAA"/>
<stop offset="0.6931" stop-color="#579DD5"/>
</linearGradient>
<linearGradient id="paint73_linear_1_1433" x1="98.7619" y1="97.88" x2="98.7619" y2="46.5558" gradientUnits="userSpaceOnUse">
<stop stop-color="#29296B"/>
<stop offset="0.455" stop-color="#435DAA"/>
<stop offset="0.6931" stop-color="#579DD5"/>
</linearGradient>
<linearGradient id="paint74_linear_1_1433" x1="105.046" y1="97.88" x2="105.046" y2="46.5558" gradientUnits="userSpaceOnUse">
<stop stop-color="#29296B"/>
<stop offset="0.455" stop-color="#435DAA"/>
<stop offset="0.6931" stop-color="#579DD5"/>
</linearGradient>
<linearGradient id="paint75_linear_1_1433" x1="50.7906" y1="15.6169" x2="60.3457" y2="98.2034" gradientUnits="userSpaceOnUse">
<stop stop-color="#29296B"/>
<stop offset="0.455" stop-color="#435DAA"/>
<stop offset="0.6931" stop-color="#579DD5"/>
</linearGradient>
<linearGradient id="paint76_linear_1_1433" x1="54.7684" y1="49.7738" x2="54.7684" y2="96.2729" gradientUnits="userSpaceOnUse">
<stop stop-color="#29296B"/>
<stop offset="0.455" stop-color="#435DAA"/>
<stop offset="0.6931" stop-color="#579DD5"/>
</linearGradient>
<linearGradient id="paint77_linear_1_1433" x1="4.4906" y1="79.961" x2="4.4906" y2="28.6364" gradientUnits="userSpaceOnUse">
<stop stop-color="#29296B"/>
<stop offset="0.455" stop-color="#435DAA"/>
<stop offset="0.6931" stop-color="#579DD5"/>
</linearGradient>
<linearGradient id="paint78_linear_1_1433" x1="10.775" y1="79.961" x2="10.775" y2="28.6364" gradientUnits="userSpaceOnUse">
<stop stop-color="#29296B"/>
<stop offset="0.455" stop-color="#435DAA"/>
<stop offset="0.6931" stop-color="#579DD5"/>
</linearGradient>
<linearGradient id="paint79_linear_1_1433" x1="17.06" y1="79.961" x2="17.06" y2="28.6364" gradientUnits="userSpaceOnUse">
<stop stop-color="#29296B"/>
<stop offset="0.455" stop-color="#435DAA"/>
<stop offset="0.6931" stop-color="#579DD5"/>
</linearGradient>
<linearGradient id="paint80_linear_1_1433" x1="23.3451" y1="79.961" x2="23.3451" y2="28.6364" gradientUnits="userSpaceOnUse">
<stop stop-color="#29296B"/>
<stop offset="0.455" stop-color="#435DAA"/>
<stop offset="0.6931" stop-color="#579DD5"/>
</linearGradient>
<linearGradient id="paint81_linear_1_1433" x1="29.6292" y1="79.961" x2="29.6292" y2="28.6364" gradientUnits="userSpaceOnUse">
<stop stop-color="#29296B"/>
<stop offset="0.455" stop-color="#435DAA"/>
<stop offset="0.6931" stop-color="#579DD5"/>
</linearGradient>
<linearGradient id="paint82_linear_1_1433" x1="35.9142" y1="79.961" x2="35.9142" y2="28.6364" gradientUnits="userSpaceOnUse">
<stop stop-color="#29296B"/>
<stop offset="0.455" stop-color="#435DAA"/>
<stop offset="0.6931" stop-color="#579DD5"/>
</linearGradient>
<linearGradient id="paint83_linear_1_1433" x1="42.1992" y1="79.961" x2="42.1992" y2="28.6364" gradientUnits="userSpaceOnUse">
<stop stop-color="#29296B"/>
<stop offset="0.455" stop-color="#435DAA"/>
<stop offset="0.6931" stop-color="#579DD5"/>
</linearGradient>
<linearGradient id="paint84_linear_1_1433" x1="48.4836" y1="79.961" x2="48.4836" y2="28.6364" gradientUnits="userSpaceOnUse">
<stop stop-color="#29296B"/>
<stop offset="0.455" stop-color="#435DAA"/>
<stop offset="0.6931" stop-color="#579DD5"/>
</linearGradient>
<linearGradient id="paint85_linear_1_1433" x1="54.7684" y1="79.961" x2="54.7684" y2="28.6364" gradientUnits="userSpaceOnUse">
<stop stop-color="#29296B"/>
<stop offset="0.455" stop-color="#435DAA"/>
<stop offset="0.6931" stop-color="#579DD5"/>
</linearGradient>
<linearGradient id="paint86_linear_1_1433" x1="61.0535" y1="79.961" x2="61.0535" y2="28.6364" gradientUnits="userSpaceOnUse">
<stop stop-color="#29296B"/>
<stop offset="0.455" stop-color="#435DAA"/>
<stop offset="0.6931" stop-color="#579DD5"/>
</linearGradient>
<linearGradient id="paint87_linear_1_1433" x1="67.3376" y1="79.961" x2="67.3376" y2="28.6364" gradientUnits="userSpaceOnUse">
<stop stop-color="#29296B"/>
<stop offset="0.455" stop-color="#435DAA"/>
<stop offset="0.6931" stop-color="#579DD5"/>
</linearGradient>
<linearGradient id="paint88_linear_1_1433" x1="73.6227" y1="79.961" x2="73.6227" y2="28.6364" gradientUnits="userSpaceOnUse">
<stop stop-color="#29296B"/>
<stop offset="0.455" stop-color="#435DAA"/>
<stop offset="0.6931" stop-color="#579DD5"/>
</linearGradient>
<linearGradient id="paint89_linear_1_1433" x1="79.9077" y1="79.961" x2="79.9077" y2="28.6364" gradientUnits="userSpaceOnUse">
<stop stop-color="#29296B"/>
<stop offset="0.455" stop-color="#435DAA"/>
<stop offset="0.6931" stop-color="#579DD5"/>
</linearGradient>
<linearGradient id="paint90_linear_1_1433" x1="86.1921" y1="79.961" x2="86.1921" y2="28.6364" gradientUnits="userSpaceOnUse">
<stop stop-color="#29296B"/>
<stop offset="0.455" stop-color="#435DAA"/>
<stop offset="0.6931" stop-color="#579DD5"/>
</linearGradient>
<linearGradient id="paint91_linear_1_1433" x1="92.4769" y1="79.961" x2="92.4769" y2="28.6364" gradientUnits="userSpaceOnUse">
<stop stop-color="#29296B"/>
<stop offset="0.455" stop-color="#435DAA"/>
<stop offset="0.6931" stop-color="#579DD5"/>
</linearGradient>
<linearGradient id="paint92_linear_1_1433" x1="98.7619" y1="79.961" x2="98.7619" y2="28.6364" gradientUnits="userSpaceOnUse">
<stop stop-color="#29296B"/>
<stop offset="0.455" stop-color="#435DAA"/>
<stop offset="0.6931" stop-color="#579DD5"/>
</linearGradient>
<linearGradient id="paint93_linear_1_1433" x1="105.046" y1="79.961" x2="105.046" y2="28.6364" gradientUnits="userSpaceOnUse">
<stop stop-color="#29296B"/>
<stop offset="0.455" stop-color="#435DAA"/>
<stop offset="0.6931" stop-color="#579DD5"/>
</linearGradient>
<linearGradient id="paint94_linear_1_1433" x1="50.7906" y1="-2.30248" x2="60.3457" y2="80.2842" gradientUnits="userSpaceOnUse">
<stop stop-color="#29296B"/>
<stop offset="0.455" stop-color="#435DAA"/>
<stop offset="0.6931" stop-color="#579DD5"/>
</linearGradient>
<linearGradient id="paint95_linear_1_1433" x1="6.1175" y1="30.5575" x2="103.419" y2="30.5575" gradientUnits="userSpaceOnUse">
<stop stop-color="#29296B"/>
<stop offset="0.455" stop-color="#435DAA"/>
<stop offset="0.6931" stop-color="#579DD5"/>
</linearGradient>
</defs>
</svg>
