<svg width="106" height="60" viewBox="0 0 106 60" fill="none" xmlns="http://www.w3.org/2000/svg">
<path opacity="0.1" d="M53.2122 59.9268C82.0581 59.9268 105.442 48.3071 105.442 33.9734C105.442 19.6397 82.0581 8.0199 53.2122 8.0199C24.3662 8.0199 0.981934 19.6397 0.981934 33.9734C0.981934 48.3071 24.3662 59.9268 53.2122 59.9268Z" fill="url(#paint0_radial_1_1081)"/>
<path d="M85.3857 19.4751V28.8653C85.3857 33.8647 82.0791 38.8641 75.466 42.6897C62.2399 50.3193 40.7909 50.3193 27.5647 42.6897C20.9517 38.8858 17.6451 33.8647 17.6451 28.8653V18.9099" stroke="#61C196" stroke-width="0.1883" stroke-miterlimit="10"/>
<path d="M19.7988 27.3872V35.6906C20.1251 36.2123 20.5166 36.7122 20.9299 37.2339V27.3438L19.7988 27.3872Z" fill="#61C196"/>
<path d="M23.6926 31.4302V39.9944C24.0624 40.2987 24.4323 40.5813 24.8238 40.8856V31.3867L23.6926 31.4302Z" fill="#61C196"/>
<path d="M27.5865 33.9734V42.6898C27.9563 42.9071 28.3479 43.081 28.7177 43.2766V33.9299L27.5865 33.9734Z" fill="#61C196"/>
<path d="M31.4804 35.9949V44.5808C31.8502 44.733 32.22 44.9069 32.6116 45.059V35.9514L31.4804 35.9949Z" fill="#61C196"/>
<path d="M35.3743 37.2338V46.0154C35.7441 46.124 36.1357 46.2327 36.5055 46.3414V37.1686L35.3743 37.2338Z" fill="#61C196"/>
<path d="M39.2682 38.2337V47.0804C39.638 47.1674 40.0295 47.2326 40.3993 47.2978V38.1902L39.2682 38.2337Z" fill="#61C196"/>
<path d="M44.1845 39.1466L43.162 39.1901V47.776C43.5319 47.8412 43.9234 47.8847 44.2932 47.9282V39.1249H44.1845V39.1466Z" fill="#61C196"/>
<path d="M47.0559 39.1466V48.2108C47.4257 48.2325 47.8173 48.276 48.1871 48.2977V39.1249H47.0559V39.1466Z" fill="#61C196"/>
<path d="M50.9498 39.1466V48.3846C51.3196 48.3846 51.7112 48.3846 52.081 48.3846V39.1466H50.9498Z" fill="#61C196"/>
<path d="M54.8437 39.1466V48.3194C55.2135 48.2977 55.6051 48.2542 55.9749 48.2325V39.1683H54.8437V39.1466Z" fill="#61C196"/>
<path d="M58.7375 39.1466V47.9499C59.1074 47.9064 59.4989 47.8412 59.8687 47.7978V39.1683H58.7375V39.1466Z" fill="#61C196"/>
<path d="M62.6315 38.2119V47.2978C63.0013 47.2326 63.3928 47.1456 63.7626 47.0804V38.2119H62.6315Z" fill="#61C196"/>
<path d="M66.5253 37.212V46.3631C66.8951 46.2544 67.2867 46.1458 67.6566 46.0371V37.212H66.5253V37.212Z" fill="#61C196"/>
<path d="M70.4192 35.5383V45.0589C70.8108 44.9068 71.1805 44.7329 71.5503 44.5807V35.5383H70.4192Z" fill="#61C196"/>
<path d="M74.3131 34.0386V43.2766C74.6829 43.081 75.0745 42.9071 75.4443 42.6897V34.0386H74.3131Z" fill="#61C196"/>
<path d="M78.207 31.3867V40.8639C78.5986 40.5813 78.9684 40.277 79.3382 39.9727V31.3867H78.207Z" fill="#61C196"/>
<path d="M82.1008 27.3655V37.2339C82.5141 36.7339 82.9058 36.2123 83.2321 35.6906V27.3655H82.1008V27.3655Z" fill="#61C196"/>
<path d="M75.466 33.6473C62.2399 41.2768 40.7909 41.2768 27.5648 33.6473C14.3386 26.0178 14.3386 13.6497 27.5648 6.02012C40.7909 -1.60941 62.2399 -1.60941 75.466 6.02012C88.6922 13.6279 88.6922 26.0178 75.466 33.6473Z" stroke="#61C196" stroke-width="0.1883" stroke-miterlimit="10"/>
<path d="M51.5154 35.9731C67.8546 35.9731 81.1002 28.3336 81.1002 18.9099C81.1002 9.48613 67.8546 1.84668 51.5154 1.84668C35.1762 1.84668 21.9306 9.48613 21.9306 18.9099C21.9306 28.3336 35.1762 35.9731 51.5154 35.9731Z" stroke="#61C196" stroke-width="0.1883" stroke-miterlimit="10"/>
<path d="M47.9696 8.32416L43.6841 5.84619L39.7685 8.1068L43.6841 10.3674L39.7685 12.628L35.8528 10.3674L31.9372 12.628L35.8528 14.8886L31.9372 17.1492L51.5372 28.4522L55.4528 26.1916L59.3684 28.4522L63.284 26.1916L59.3684 23.931L63.284 21.6704L67.1997 23.931L71.1153 21.6704L66.8299 19.1924C68.0481 17.7578 67.9176 16.0624 66.5036 14.693C65.0896 13.3236 62.5662 12.4541 59.7817 12.3889C59.6512 10.7804 58.1502 9.34579 55.7791 8.5198C53.3862 7.69381 50.4495 7.60685 47.9696 8.32416ZM39.7685 17.1492L49.5576 11.4977C50.6452 10.8674 52.3855 10.8674 53.4732 11.4977C54.5609 12.1281 54.5609 13.1279 53.4732 13.7583L43.6841 19.4098L39.7685 17.1492ZM61.3045 18.2795L51.5154 23.931L47.5998 21.6704L57.3889 16.0189C58.4765 15.3885 60.2168 15.3885 61.3045 16.0189C62.3921 16.6493 62.3921 17.6491 61.3045 18.2795Z" stroke="#61C196" stroke-width="0.1883" stroke-miterlimit="10"/>
<defs>
<radialGradient id="paint0_radial_1_1081" cx="0" cy="0" r="1" gradientUnits="userSpaceOnUse" gradientTransform="translate(53.2071 33.9639) scale(42.6447 36.6905)">
<stop stop-color="#2C409A"/>
<stop offset="0.1037" stop-color="#283780"/>
<stop offset="0.2505" stop-color="#212B65"/>
<stop offset="0.3944" stop-color="#192251"/>
<stop offset="0.5329" stop-color="#121A43"/>
<stop offset="0.6634" stop-color="#0D153B"/>
<stop offset="0.7778" stop-color="#0B1339"/>
<stop offset="1" stop-color="#0E0F1B"/>
</radialGradient>
</defs>
</svg>
