<svg width="1280" height="613" viewBox="0 0 1280 613" fill="none" xmlns="http://www.w3.org/2000/svg">
<g opacity="0.31">
<path d="M1835 239.17C1835 239.17 1668.23 171.672 1402.5 171.672C1136.77 171.672 1065.27 260.67 729.92 260.67C394.565 260.67 324.827 67.1698 -126 67.1698" stroke="#F3F3F3" stroke-width="0.5428" stroke-miterlimit="10"/>
<path opacity="0.9756" d="M1835 242.167C1835 242.167 1660 167.55 1394.22 167.55C1128.49 167.55 1065.22 269.288 729.863 269.288C394.509 269.288 324.827 75.3202 -126 75.3202" stroke="#F3F3F3" stroke-width="0.5368" stroke-miterlimit="10"/>
<path opacity="0.9512" d="M1835 245.118C1835 245.118 1651.72 163.334 1385.99 163.334C1120.26 163.334 1065.27 277.86 729.863 277.86C394.452 277.86 324.827 83.4236 -126 83.4236" stroke="#F3F3F3" stroke-width="0.5307" stroke-miterlimit="10"/>
<path opacity="0.9268" d="M1835 248.069C1835 248.069 1643.49 159.119 1377.76 159.119C1112.03 159.119 1065.27 286.385 729.92 286.385C394.565 286.385 324.827 91.574 -126 91.574" stroke="#F3F3F3" stroke-width="0.5246" stroke-miterlimit="10"/>
<path opacity="0.9024" d="M1835 251.067C1835 251.067 1635.21 154.95 1369.48 154.95C1103.75 154.95 1065.22 295.004 729.863 295.004C394.509 295.004 324.827 99.6774 -126 99.6774" stroke="#F3F3F3" stroke-width="0.5185" stroke-miterlimit="10"/>
<path opacity="0.878" d="M1835 254.018C1835 254.018 1626.98 150.734 1361.25 150.734C1095.52 150.734 1065.27 303.529 729.863 303.529C394.452 303.529 324.827 107.828 -126 107.828" stroke="#F3F3F3" stroke-width="0.5124" stroke-miterlimit="10"/>
<path opacity="0.8537" d="M1835 257.016C1835 257.016 1618.75 146.612 1353.02 146.612C1087.29 146.612 1065.27 312.195 729.92 312.195C394.565 312.195 324.827 115.978 -126 115.978" stroke="#F3F3F3" stroke-width="0.5063" stroke-miterlimit="10"/>
<path opacity="0.8293" d="M1835 259.967C1835 259.967 1610.47 142.396 1344.74 142.396C1079.01 142.396 1065.22 320.72 729.863 320.72C394.509 320.72 324.827 124.082 -126 124.082" stroke="#F3F3F3" stroke-width="0.5003" stroke-miterlimit="10"/>
<path opacity="0.8049" d="M1835 262.918C1835 262.918 1602.24 138.181 1336.51 138.181C1070.78 138.181 1065.27 329.291 729.863 329.291C394.452 329.291 324.827 132.232 -126 132.232" stroke="#F3F3F3" stroke-width="0.4942" stroke-miterlimit="10"/>
<path opacity="0.7805" d="M1835 265.916C1835 265.916 1594.01 134.012 1328.28 134.012C1062.55 134.012 1065.27 337.863 729.92 337.863C394.565 337.863 324.827 140.382 -126 140.382" stroke="#F3F3F3" stroke-width="0.4881" stroke-miterlimit="10"/>
<path opacity="0.7561" d="M1835 268.867C1835 268.867 1585.73 129.796 1320 129.796C1054.27 129.796 1065.27 346.435 729.863 346.435C394.452 346.435 324.827 148.486 -126 148.486" stroke="#F3F3F3" stroke-width="0.482" stroke-miterlimit="10"/>
<path opacity="0.7317" d="M1835 271.864C1835 271.864 1577.5 125.674 1311.77 125.674C1046.04 125.674 1065.27 355.054 729.863 355.054C394.452 355.054 324.827 156.636 -126 156.636" stroke="#F3F3F3" stroke-width="0.4759" stroke-miterlimit="10"/>
<path opacity="0.7073" d="M1835 274.815C1835 274.815 1569.27 121.458 1303.48 121.458C1037.7 121.458 1065.22 363.626 729.863 363.626C394.509 363.626 324.827 164.739 -126 164.739" stroke="#F3F3F3" stroke-width="0.4699" stroke-miterlimit="10"/>
<path opacity="0.6829" d="M1835 277.767C1835 277.767 1560.99 117.243 1295.26 117.243C1029.53 117.243 1065.27 372.151 729.863 372.151C394.452 372.151 324.827 172.89 -126 172.89" stroke="#F3F3F3" stroke-width="0.4638" stroke-miterlimit="10"/>
<path opacity="0.6585" d="M1835 280.764C1835 280.764 1552.76 113.074 1287.03 113.074C1021.3 113.074 1065.27 380.77 729.863 380.77C394.452 380.77 324.827 181.04 -126 181.04" stroke="#F3F3F3" stroke-width="0.4577" stroke-miterlimit="10"/>
<path opacity="0.6341" d="M1835 283.715C1835 283.715 1544.53 108.858 1278.74 108.858C1012.96 108.858 1065.22 389.295 729.863 389.295C394.509 389.295 324.827 189.144 -126 189.144" stroke="#F3F3F3" stroke-width="0.4516" stroke-miterlimit="10"/>
<path opacity="0.6098" d="M1835 286.713C1835 286.713 1536.25 104.736 1270.52 104.736C1004.79 104.736 1065.27 397.96 729.863 397.96C394.452 397.96 324.827 197.294 -126 197.294" stroke="#F3F3F3" stroke-width="0.4455" stroke-miterlimit="10"/>
<path opacity="0.5854" d="M1835 289.664C1835 289.664 1528.02 100.521 1262.29 100.521C996.557 100.521 1065.27 406.485 729.863 406.485C394.452 406.485 324.827 205.444 -126 205.444" stroke="#F3F3F3" stroke-width="0.4394" stroke-miterlimit="10"/>
<path opacity="0.561" d="M1835 292.615C1835 292.615 1519.79 96.3049 1254 96.3049C988.216 96.3049 1065.22 415.057 729.863 415.057C394.509 415.057 324.827 213.548 -126 213.548" stroke="#F3F3F3" stroke-width="0.4334" stroke-miterlimit="10"/>
<path opacity="0.5366" d="M1835 295.613C1835 295.613 1511.51 92.136 1245.78 92.136C980.045 92.136 1065.27 423.629 729.863 423.629C394.452 423.629 324.827 221.698 -126 221.698" stroke="#F3F3F3" stroke-width="0.4273" stroke-miterlimit="10"/>
<path opacity="0.5122" d="M1835 298.564C1835 298.564 1503.28 87.9672 1237.55 87.9672C971.817 87.9672 1065.27 432.248 729.863 432.248C394.452 432.248 324.827 229.848 -126 229.848" stroke="#F3F3F3" stroke-width="0.4212" stroke-miterlimit="10"/>
<path opacity="0.4878" d="M1835 301.515C1835 301.515 1495.05 83.7515 1229.26 83.7515C963.476 83.7515 1065.22 440.773 729.863 440.773C394.509 440.773 324.827 237.952 -126 237.952" stroke="#F3F3F3" stroke-width="0.4151" stroke-miterlimit="10"/>
<path opacity="0.4634" d="M1835 304.513C1835 304.513 1486.76 79.5826 1221.03 79.5826C955.305 79.5826 1065.27 449.391 729.863 449.391C394.452 449.391 324.827 246.102 -126 246.102" stroke="#F3F3F3" stroke-width="0.409" stroke-miterlimit="10"/>
<path opacity="0.439" d="M1835 307.464C1835 307.464 1478.54 75.3669 1212.81 75.3669C947.077 75.3669 1065.27 457.916 729.863 457.916C394.452 457.916 324.827 254.205 -126 254.205" stroke="#F3F3F3" stroke-width="0.403" stroke-miterlimit="10"/>
<path opacity="0.4146" d="M1835 310.461C1835 310.461 1470.31 71.1981 1204.52 71.1981C938.736 71.1981 1065.22 466.535 729.863 466.535C394.509 466.535 324.827 262.356 -126 262.356" stroke="#F3F3F3" stroke-width="0.3969" stroke-miterlimit="10"/>
<path opacity="0.3902" d="M1835 313.412C1835 313.412 1462.02 67.0293 1196.29 67.0293C930.565 67.0293 1065.27 475.107 729.863 475.107C394.452 475.107 324.827 270.506 -126 270.506" stroke="#F3F3F3" stroke-width="0.3908" stroke-miterlimit="10"/>
<path opacity="0.3659" d="M1835 316.363C1835 316.363 1453.8 62.8136 1188.07 62.8136C922.337 62.8136 1065.27 483.679 729.863 483.679C394.452 483.679 324.827 278.61 -126 278.61" stroke="#F3F3F3" stroke-width="0.3847" stroke-miterlimit="10"/>
<path opacity="0.3415" d="M1835 319.361C1835 319.361 1445.57 58.6448 1179.78 58.6448C913.996 58.6448 1065.22 492.251 729.863 492.251C394.509 492.251 324.827 286.76 -126 286.76" stroke="#F3F3F3" stroke-width="0.3786" stroke-miterlimit="10"/>
<path opacity="0.3171" d="M1835 322.312C1835 322.312 1437.28 54.4291 1171.55 54.4291C905.825 54.4291 1065.27 500.823 729.863 500.823C394.452 500.823 324.827 294.91 -126 294.91" stroke="#F3F3F3" stroke-width="0.3725" stroke-miterlimit="10"/>
<path opacity="0.2927" d="M1835 325.31C1835 325.31 1429.06 50.2603 1163.33 50.2603C897.597 50.2603 1065.27 509.395 729.863 509.395C394.452 509.395 324.827 303.014 -126 303.014" stroke="#F3F3F3" stroke-width="0.3665" stroke-miterlimit="10"/>
<path opacity="0.2683" d="M1835 328.261C1835 328.261 1420.83 46.0914 1155.04 46.0914C889.255 46.0914 1065.22 518.013 729.863 518.013C394.509 518.013 324.827 311.164 -126 311.164" stroke="#F3F3F3" stroke-width="0.3604" stroke-miterlimit="10"/>
<path opacity="0.2439" d="M1835 331.212C1835 331.212 1412.54 41.8757 1146.81 41.8757C881.084 41.8757 1065.27 526.538 729.863 526.538C394.452 526.538 324.827 319.267 -126 319.267" stroke="#F3F3F3" stroke-width="0.3543" stroke-miterlimit="10"/>
<path opacity="0.2195" d="M1835 334.21C1835 334.21 1404.32 37.7069 1138.59 37.7069C872.857 37.7069 1065.27 535.157 729.863 535.157C394.452 535.157 324.827 327.418 -126 327.418" stroke="#F3F3F3" stroke-width="0.3482" stroke-miterlimit="10"/>
<path opacity="0.1951" d="M1835 337.161C1835 337.161 1396.09 33.4912 1130.3 33.4912C864.515 33.4912 1065.22 543.682 729.863 543.682C394.509 543.682 324.827 335.568 -126 335.568" stroke="#F3F3F3" stroke-width="0.3421" stroke-miterlimit="10"/>
<path opacity="0.1707" d="M1835 340.159C1835 340.159 1387.8 29.3693 1122.07 29.3693C856.344 29.3693 1065.27 552.348 729.863 552.348C394.452 552.348 324.827 343.672 -126 343.672" stroke="#F3F3F3" stroke-width="0.3361" stroke-miterlimit="10"/>
<path opacity="0.1463" d="M1835 343.11C1835 343.11 1379.58 25.1536 1113.85 25.1536C848.116 25.1536 1065.27 560.873 729.863 560.873C394.452 560.873 324.827 351.822 -126 351.822" stroke="#F3F3F3" stroke-width="0.33" stroke-miterlimit="10"/>
<path opacity="0.122" d="M1835 346.06C1835 346.06 1371.35 20.9379 1105.56 20.9379C839.775 20.9379 1065.22 569.445 729.863 569.445C394.509 569.445 324.827 359.972 -126 359.972" stroke="#F3F3F3" stroke-width="0.3239" stroke-miterlimit="10"/>
<path opacity="0.0976" d="M1835 349.058C1835 349.058 1363.06 16.769 1097.33 16.769C831.604 16.769 1065.27 578.017 729.863 578.017C394.452 578.017 324.827 368.076 -126 368.076" stroke="#F3F3F3" stroke-width="0.3178" stroke-miterlimit="10"/>
<path opacity="0.0732" d="M1835 352.009C1835 352.009 1354.84 12.5533 1089.11 12.5533C823.376 12.5533 1065.27 586.588 729.92 586.588C394.565 586.588 324.827 376.226 -126 376.226" stroke="#F3F3F3" stroke-width="0.3117" stroke-miterlimit="10"/>
<path opacity="0.0488" d="M1835 354.96C1835 354.96 1346.55 8.38452 1080.82 8.38452C815.092 8.38452 1065.22 595.16 729.863 595.16C394.509 595.16 324.827 384.329 -126 384.329" stroke="#F3F3F3" stroke-width="0.3056" stroke-miterlimit="10"/>
<path opacity="0.0244" d="M1835 357.958C1835 357.958 1338.32 4.2157 1072.59 4.2157C806.864 4.2157 1065.27 603.779 729.863 603.779C394.452 603.779 324.827 392.48 -126 392.48" stroke="#F3F3F3" stroke-width="0.2996" stroke-miterlimit="10"/>
</g>
</svg>
