<svg width="57" height="53" viewBox="0 0 57 53" fill="none" xmlns="http://www.w3.org/2000/svg">
<g filter="url(#filter0_d_1_2099)">
<path d="M51.3645 1.06054C50.7303 0.530126 49.9649 0.182531 49.1499 0.0547565C48.3348 -0.0730178 47.5006 0.0238115 46.7359 0.334937L6.81859 16.5379C5.96517 16.8911 5.23872 17.4968 4.73562 18.2747C4.23252 19.0526 3.97656 19.9659 4.00169 20.8935C4.02682 21.821 4.33185 22.719 4.87632 23.4682C5.42079 24.2174 6.17896 24.7825 7.05024 25.0884L15.1246 27.9124L19.6239 42.8769C19.6856 43.0766 19.7748 43.2666 19.889 43.4413C19.9068 43.4682 19.9313 43.4861 19.9491 43.5152C20.0804 43.6989 20.2389 43.8613 20.4191 43.9967C20.4694 44.0363 20.5215 44.0737 20.575 44.1087C20.786 44.2495 21.0196 44.3525 21.2655 44.4132L21.2945 44.4155L21.3079 44.4222C21.4567 44.4523 21.6082 44.4673 21.76 44.467L21.8001 44.4603C22.0282 44.4565 22.2544 44.4172 22.4706 44.3438C22.5218 44.3259 22.5641 44.299 22.6131 44.2766C22.7748 44.21 22.9281 44.1243 23.0697 44.0213C23.1826 43.925 23.2954 43.8287 23.4083 43.7324L29.4268 37.0519L38.4032 44.0437C39.1933 44.6625 40.1659 44.999 41.1674 45C42.217 44.9988 43.2343 44.6347 44.0487 43.9688C44.863 43.303 45.4249 42.3758 45.64 41.3429L52.908 5.4724C53.0724 4.66541 53.0157 3.82867 52.7438 3.0516C52.4719 2.27453 51.9951 1.58633 51.3645 1.06054ZM22.6421 28.6246C22.3336 28.9341 22.1228 29.3283 22.0362 29.7578L21.3457 33.126L19.5994 27.319L28.6538 22.5779L22.6421 28.6246ZM41.134 40.503L30.5249 32.2392C30.0809 31.8948 29.5243 31.7312 28.9657 31.781C28.4072 31.8308 27.8879 32.0903 27.5112 32.5079L25.5822 34.6467L26.2638 31.3165L42.0405 15.454C42.4149 15.0753 42.6423 14.5746 42.6819 14.0422C42.7215 13.5098 42.5706 12.9807 42.2565 12.5503C41.9423 12.1198 41.4856 11.8164 40.9685 11.6947C40.4515 11.573 39.9083 11.6409 39.4367 11.8864L16.7951 23.738L8.49805 20.6855L48.5446 4.58107L41.134 40.503Z" fill="white"/>
</g>
<defs>
<filter id="filter0_d_1_2099" x="0" y="0" width="57" height="53" filterUnits="userSpaceOnUse" color-interpolation-filters="sRGB">
<feFlood flood-opacity="0" result="BackgroundImageFix"/>
<feColorMatrix in="SourceAlpha" type="matrix" values="0 0 0 0 0 0 0 0 0 0 0 0 0 0 0 0 0 0 127 0" result="hardAlpha"/>
<feOffset dy="4"/>
<feGaussianBlur stdDeviation="2"/>
<feComposite in2="hardAlpha" operator="out"/>
<feColorMatrix type="matrix" values="0 0 0 0 0 0 0 0 0 0 0 0 0 0 0 0 0 0 0.25 0"/>
<feBlend mode="normal" in2="BackgroundImageFix" result="effect1_dropShadow_1_2099"/>
<feBlend mode="normal" in="SourceGraphic" in2="effect1_dropShadow_1_2099" result="shape"/>
</filter>
</defs>
</svg>
